<?xml version="1.0" standalone="no"?>
<!DOCTYPE svg PUBLIC "-//W3C//DTD SVG 20010904//EN"
 "http://www.w3.org/TR/2001/REC-SVG-20010904/DTD/svg10.dtd">
<svg version="1.0" xmlns="http://www.w3.org/2000/svg"
 width="1008.000000pt" height="1008.000000pt" viewBox="0 0 1008.000000 1008.000000"
 preserveAspectRatio="xMidYMid meet">
<metadata>
Created by potrace 1.14, written by Peter Selinger 2001-2017
</metadata>
<g transform="translate(0.000000,1008.000000) scale(0.100000,-0.100000)"
fill="#000000" stroke="none">
<path d="M2788 9515 c-2 -2 -37 -6 -78 -9 -87 -7 -110 -10 -205 -26 -38 -7
-79 -14 -91 -15 -12 -2 -59 -13 -105 -25 -46 -12 -93 -24 -104 -26 -30 -5
-273 -89 -320 -110 -22 -10 -42 -18 -45 -19 -18 -2 -249 -122 -313 -162 -43
-26 -86 -52 -96 -58 -151 -89 -463 -358 -591 -510 -63 -75 -127 -154 -145
-179 -11 -16 -35 -48 -52 -71 -18 -24 -33 -47 -33 -50 0 -4 -11 -20 -25 -37
-14 -16 -25 -36 -25 -44 0 -8 -4 -14 -10 -14 -5 0 -10 -4 -10 -10 0 -5 -15
-33 -33 -62 -18 -29 -39 -66 -47 -83 -8 -16 -17 -32 -20 -35 -17 -16 -141
-310 -176 -420 -9 -25 -18 -52 -21 -60 -3 -8 -7 -22 -8 -30 -1 -8 -9 -37 -18
-65 -8 -27 -23 -86 -32 -130 -9 -44 -19 -87 -22 -95 -4 -8 -5 -19 -4 -23 1 -5
-3 -34 -8 -65 -27 -155 -49 -532 -31 -532 3 0 5 -28 5 -63 1 -73 12 -207 19
-228 3 -7 8 -34 11 -59 5 -46 10 -75 19 -120 3 -14 8 -38 12 -55 19 -96 91
-323 141 -445 45 -108 125 -274 135 -278 5 -2 8 -8 8 -14 0 -5 19 -42 42 -81
23 -40 41 -74 39 -76 -1 -2 1 -7 6 -10 5 -3 29 -35 53 -71 24 -36 47 -66 52
-68 4 -2 8 -10 8 -18 0 -8 5 -14 10 -14 6 0 10 -6 10 -13 0 -7 9 -19 20 -27
11 -8 20 -18 20 -22 0 -4 8 -17 18 -29 43 -52 56 -68 105 -124 54 -62 174
-183 244 -247 57 -51 230 -186 278 -216 22 -14 42 -28 45 -31 5 -6 24 -17 75
-45 11 -6 22 -13 25 -16 9 -9 65 -41 103 -58 20 -9 37 -20 37 -24 0 -5 9 -8
20 -8 11 0 20 -4 20 -10 0 -5 3 -9 8 -8 4 1 32 -10 62 -24 109 -51 198 -86
204 -81 3 4 6 1 6 -5 0 -7 10 -12 23 -12 13 0 27 -3 31 -8 4 -4 11 -7 14 -7 4
-1 36 -10 72 -22 145 -47 333 -88 500 -108 199 -24 565 -24 700 -1 14 3 45 7
70 10 25 3 56 8 70 11 14 3 39 7 55 9 17 2 62 12 100 21 39 9 81 19 94 21 14
3 28 7 33 10 5 3 20 8 34 10 63 11 365 123 376 139 4 5 8 7 8 3 0 -4 33 9 73
28 80 39 82 40 152 79 28 16 64 35 80 44 17 8 35 19 40 23 6 5 51 35 100 68
198 130 418 326 565 500 30 36 57 67 60 70 26 24 210 293 210 307 0 3 6 14 14
22 7 9 35 59 62 111 27 52 52 97 57 98 4 2 7 10 7 18 0 7 13 41 29 74 16 33
27 60 25 60 -2 0 4 17 14 38 20 38 37 91 34 105 -1 4 2 7 6 7 7 0 24 53 38
113 1 4 3 9 4 12 1 3 4 10 5 15 1 6 3 11 5 13 2 2 6 17 14 55 3 13 8 32 11 42
3 10 8 28 10 39 3 12 7 31 10 44 3 12 8 36 11 52 3 17 9 48 14 70 5 22 12 63
16 90 3 28 8 59 10 70 6 30 17 108 17 123 0 6 4 12 9 12 5 0 7 4 3 9 -3 6 6
77 20 160 14 82 26 161 27 175 1 14 5 26 8 26 3 0 5 12 4 28 0 15 3 43 7 62
10 46 21 117 24 156 1 17 5 36 8 41 4 6 9 30 12 54 11 95 16 128 35 205 11 43
22 86 24 95 19 73 117 304 137 319 3 3 13 19 22 36 81 157 352 424 518 510 19
9 36 20 39 23 4 5 55 31 70 36 3 1 36 16 74 34 38 17 76 33 85 35 9 2 23 6 31
9 23 9 126 38 157 43 154 28 192 31 343 29 91 -2 176 -6 190 -9 14 -3 39 -7
56 -10 124 -19 401 -117 426 -151 4 -5 8 -7 8 -3 0 4 22 -6 49 -22 26 -17 53
-30 60 -30 6 0 11 -5 11 -10 0 -6 10 -14 23 -19 23 -10 34 -18 126 -92 71 -58
231 -220 231 -234 0 -3 18 -28 40 -57 22 -29 40 -59 40 -65 0 -7 4 -13 9 -13
5 0 14 -15 22 -32 7 -18 15 -35 19 -38 6 -6 38 -73 68 -145 22 -50 58 -161 67
-203 3 -12 7 -32 10 -44 6 -23 9 -41 20 -108 3 -19 8 -66 10 -105 2 -38 6 -87
9 -107 2 -21 1 -38 -2 -38 -4 0 -7 -28 -6 -62 0 -79 -14 -176 -42 -293 -8 -33
-16 -64 -17 -70 -2 -5 -5 -14 -8 -20 -4 -5 -14 -35 -24 -65 -41 -126 -144
-309 -239 -425 -51 -62 -168 -178 -215 -213 -20 -15 -38 -29 -41 -32 -27 -30
-231 -148 -324 -187 -34 -14 -81 -34 -106 -45 -25 -12 -63 -29 -85 -38 -22
-10 -125 -55 -230 -100 -177 -77 -234 -101 -310 -135 -16 -7 -79 -34 -140 -60
-170 -73 -194 -84 -287 -131 -49 -24 -88 -40 -88 -36 0 4 -4 2 -8 -4 -4 -6
-34 -25 -67 -44 -60 -34 -256 -159 -265 -169 -3 -4 -32 -26 -65 -50 -33 -25
-69 -54 -81 -65 -11 -12 -36 -32 -54 -46 -38 -28 -280 -265 -280 -274 0 -3 -8
-14 -17 -25 -36 -38 -70 -77 -103 -121 -19 -25 -37 -47 -40 -50 -18 -15 -168
-249 -163 -254 4 -3 1 -6 -5 -6 -7 0 -12 -5 -12 -11 0 -6 -8 -23 -18 -37 -34
-48 -144 -275 -167 -342 -1 -3 -7 -18 -14 -35 -33 -77 -108 -310 -101 -310 1
0 -5 -17 -13 -38 -9 -21 -12 -35 -6 -31 8 4 8 1 0 -13 -5 -11 -12 -31 -15 -44
-3 -13 -7 -35 -10 -49 -15 -64 -34 -191 -42 -265 -7 -71 -11 -92 -18 -103 -4
-7 -2 -12 4 -12 6 0 9 -4 6 -9 -7 -10 -13 -57 -21 -151 -3 -36 -7 -81 -10
-100 -3 -19 -7 -55 -9 -80 -3 -25 -7 -70 -11 -100 -3 -30 -8 -75 -10 -100 -3
-25 -8 -67 -11 -95 -3 -27 -7 -68 -9 -90 -3 -22 -6 -60 -9 -85 -3 -25 -7 -74
-11 -110 -3 -36 -8 -81 -10 -100 -18 -155 -19 -162 -29 -275 -3 -33 -8 -80
-11 -105 -8 -68 -15 -128 -16 -137 -1 -4 -1 -10 0 -13 1 -3 4 -31 7 -64 5 -62
47 -183 70 -202 8 -6 14 -15 14 -21 0 -16 68 -82 127 -121 91 -62 146 -77 273
-77 197 1 369 121 437 305 19 51 26 85 38 193 2 23 7 62 10 87 2 25 7 70 10
100 3 30 8 75 11 99 3 25 7 70 10 100 2 31 6 72 9 91 2 19 7 60 10 90 10 102
17 175 20 190 2 8 6 53 10 99 4 47 8 93 10 103 4 17 11 89 20 183 2 22 7 65
10 95 10 88 13 121 21 190 14 141 24 220 29 240 2 8 7 31 10 50 3 19 17 76 31
125 14 50 27 97 29 106 2 8 11 33 21 55 9 21 18 41 19 44 22 79 111 250 200
385 108 163 284 353 430 462 39 29 75 56 80 60 90 69 250 154 445 238 129 56
141 61 203 89 32 14 60 26 62 26 2 0 28 11 57 24 29 13 87 38 128 56 85 36
112 48 190 83 30 13 91 39 135 57 44 19 83 38 87 44 4 6 8 8 8 3 0 -4 21 3 48
16 26 14 64 30 85 36 20 7 37 16 37 20 0 4 17 13 38 20 20 8 66 31 101 52 34
22 65 39 66 39 12 0 247 165 292 205 6 5 37 33 69 60 105 91 214 206 295 310
30 39 57 72 61 73 5 2 8 10 8 18 0 8 4 14 8 14 5 0 15 12 23 28 8 15 17 29 20
32 23 21 198 343 203 375 1 6 4 15 8 20 36 58 136 385 153 502 2 16 6 39 10
53 3 14 7 45 10 70 3 25 8 59 10 75 8 49 20 269 16 285 -1 3 -4 61 -6 130 -3
69 -7 136 -9 150 -2 14 -7 45 -11 70 -3 25 -9 59 -12 75 -3 17 -7 39 -8 50 -2
11 -4 20 -5 20 -1 0 -3 9 -5 20 -4 27 -21 101 -35 150 -6 22 -12 48 -15 57 -2
9 -16 50 -31 90 -15 40 -33 91 -41 113 -39 112 -218 440 -283 518 -5 6 -36 46
-67 87 -108 141 -274 305 -423 418 -100 76 -262 182 -277 182 -7 0 -13 4 -13
8 0 5 -16 14 -35 22 -19 8 -35 17 -35 22 0 4 -6 8 -13 8 -7 0 -30 10 -52 21
-124 67 -405 168 -538 195 -10 2 -26 5 -35 8 -9 3 -33 8 -52 11 -19 3 -57 10
-85 15 -48 9 -114 16 -220 25 -84 7 -410 3 -410 -5 0 -1 -22 -4 -50 -6 -27 -3
-84 -11 -125 -19 -41 -8 -86 -17 -100 -19 -14 -3 -25 -5 -25 -6 0 -1 -11 -4
-24 -6 -78 -14 -303 -85 -376 -119 -17 -7 -53 -23 -80 -35 -52 -22 -228 -117
-280 -150 -16 -11 -37 -23 -45 -27 -8 -3 -17 -9 -20 -12 -3 -4 -31 -24 -62
-45 -32 -21 -65 -46 -75 -56 -10 -9 -26 -21 -34 -26 -48 -27 -256 -225 -331
-315 -21 -24 -44 -51 -52 -59 -41 -43 -206 -283 -206 -300 0 -5 -5 -10 -11
-10 -5 0 -8 -4 -4 -9 3 -5 0 -13 -6 -17 -14 -8 -142 -270 -146 -299 -2 -10 -9
-23 -16 -27 -6 -4 -8 -8 -3 -8 6 0 5 -5 -2 -12 -7 -7 -12 -20 -12 -30 0 -10
-4 -26 -9 -36 -6 -9 -19 -48 -31 -87 -11 -38 -25 -83 -30 -100 -5 -16 -12 -46
-15 -65 -3 -19 -8 -42 -10 -50 -2 -8 -7 -28 -10 -45 -2 -16 -7 -41 -10 -55 -2
-13 -7 -40 -10 -60 -3 -20 -7 -45 -9 -55 -5 -29 -16 -95 -21 -130 -3 -16 -7
-43 -9 -60 -2 -16 -12 -72 -21 -124 -9 -51 -14 -100 -11 -107 3 -8 2 -14 -3
-14 -4 0 -8 -6 -8 -12 -1 -17 -13 -99 -18 -118 -2 -8 -6 -35 -9 -60 -3 -25 -8
-56 -11 -70 -8 -42 -23 -129 -30 -185 -7 -50 -13 -80 -15 -80 -1 0 -3 -16 -5
-35 -2 -19 -6 -46 -10 -60 -3 -14 -8 -36 -11 -50 -2 -14 -7 -32 -11 -40 -3 -8
-7 -20 -8 -26 -5 -23 -36 -129 -42 -144 -3 -8 -7 -19 -9 -25 -14 -53 -97 -227
-152 -320 -101 -170 -293 -388 -437 -495 -33 -25 -62 -47 -65 -50 -50 -51
-379 -224 -465 -245 -5 -1 -17 -5 -25 -8 -31 -13 -137 -46 -161 -51 -13 -2
-55 -11 -94 -19 -92 -20 -125 -25 -215 -34 -131 -12 -378 -7 -465 10 -11 3
-42 8 -70 12 -27 4 -54 10 -59 13 -6 3 -19 7 -30 8 -12 1 -39 7 -61 13 -22 7
-49 14 -60 16 -18 4 -32 9 -90 31 -11 4 -24 8 -30 9 -26 6 -161 70 -167 80 -4
5 -8 7 -8 2 0 -4 -17 3 -37 16 -21 13 -45 27 -53 31 -8 4 -24 12 -35 19 -289
177 -546 460 -710 782 -53 103 -115 254 -115 277 0 8 -5 19 -12 26 -7 7 -9 12
-5 12 3 0 2 12 -4 28 -6 15 -12 34 -14 42 -19 91 -35 172 -40 205 -17 106 -24
312 -12 338 5 10 4 17 -3 17 -6 0 -9 3 -7 8 3 4 8 36 11 72 4 36 9 76 11 90 2
14 7 41 10 60 2 19 10 56 16 81 6 26 12 53 13 60 2 8 6 21 9 29 4 8 8 26 11
40 5 29 59 178 83 230 47 102 82 170 107 210 54 86 120 185 131 196 5 6 24 28
40 50 31 41 195 208 255 259 19 17 58 46 85 65 28 19 52 38 55 41 9 10 152 94
215 126 110 56 288 124 355 137 14 2 32 7 40 10 16 6 59 15 100 21 14 2 52 8
85 14 33 6 111 13 173 16 63 3 117 6 120 7 4 0 9 -1 12 -2 19 -7 41 -7 45 1 3
4 16 4 29 -1 13 -5 26 -7 28 -5 2 3 29 7 59 10 59 6 131 23 139 34 3 3 26 17
52 29 59 30 140 111 170 171 13 25 26 48 30 51 12 9 37 124 34 158 -1 18 1 35
6 38 5 3 5 11 1 17 -4 6 -8 27 -10 47 -2 19 -9 51 -15 70 -7 19 -12 37 -13 40
-2 20 -70 123 -105 157 -45 46 -137 105 -185 118 -17 4 -37 10 -45 13 -15 5
-437 12 -442 7z"/>
</g>
</svg>
