<svg width="55" height="61" viewBox="0 0 55 61" fill="none" xmlns="http://www.w3.org/2000/svg">
<mask id="path-1-outside-1_101_16" maskUnits="userSpaceOnUse" x="0" y="0" width="55" height="61" fill="black">
<rect fill="white" width="55" height="61"/>
<path d="M49.9454 11.0546C46.0995 7.20862 41.1995 4.5895 35.865 3.5284C30.5305 2.46731 25.0012 3.0119 19.9762 5.09331C14.9512 7.17473 10.6563 10.6995 7.63458 15.2218C4.61285 19.7442 3 25.061 3 30.5C3 35.939 4.61285 41.2558 7.63459 45.7782C10.6563 50.3005 14.9512 53.8253 19.9762 55.9067C25.0012 57.9881 30.5305 58.5327 35.865 57.4716C41.1995 56.4105 46.0995 53.7914 49.9454 49.9454L43.1395 43.1395C40.6397 45.6394 37.4547 47.3418 33.9872 48.0315C30.5198 48.7212 26.9258 48.3673 23.6595 47.0143C20.3933 45.6614 17.6016 43.3703 15.6375 40.4308C13.6734 37.4913 12.625 34.0353 12.625 30.5C12.625 26.9647 13.6733 23.5087 15.6375 20.5692C17.6016 17.6297 20.3933 15.3386 23.6595 13.9857C26.9258 12.6327 30.5198 12.2788 33.9872 12.9685C37.4546 13.6582 40.6397 15.3606 43.1395 17.8605L49.9454 11.0546Z"/>
</mask>
<path d="M49.9454 11.0546C46.0995 7.20862 41.1995 4.5895 35.865 3.5284C30.5305 2.46731 25.0012 3.0119 19.9762 5.09331C14.9512 7.17473 10.6563 10.6995 7.63458 15.2218C4.61285 19.7442 3 25.061 3 30.5C3 35.939 4.61285 41.2558 7.63459 45.7782C10.6563 50.3005 14.9512 53.8253 19.9762 55.9067C25.0012 57.9881 30.5305 58.5327 35.865 57.4716C41.1995 56.4105 46.0995 53.7914 49.9454 49.9454L43.1395 43.1395C40.6397 45.6394 37.4547 47.3418 33.9872 48.0315C30.5198 48.7212 26.9258 48.3673 23.6595 47.0143C20.3933 45.6614 17.6016 43.3703 15.6375 40.4308C13.6734 37.4913 12.625 34.0353 12.625 30.5C12.625 26.9647 13.6733 23.5087 15.6375 20.5692C17.6016 17.6297 20.3933 15.3386 23.6595 13.9857C26.9258 12.6327 30.5198 12.2788 33.9872 12.9685C37.4546 13.6582 40.6397 15.3606 43.1395 17.8605L49.9454 11.0546Z" fill="black"/>
<path d="M49.9454 11.0546C46.0995 7.20862 41.1995 4.5895 35.865 3.5284C30.5305 2.46731 25.0012 3.0119 19.9762 5.09331C14.9512 7.17473 10.6563 10.6995 7.63458 15.2218C4.61285 19.7442 3 25.061 3 30.5C3 35.939 4.61285 41.2558 7.63459 45.7782C10.6563 50.3005 14.9512 53.8253 19.9762 55.9067C25.0012 57.9881 30.5305 58.5327 35.865 57.4716C41.1995 56.4105 46.0995 53.7914 49.9454 49.9454L43.1395 43.1395C40.6397 45.6394 37.4547 47.3418 33.9872 48.0315C30.5198 48.7212 26.9258 48.3673 23.6595 47.0143C20.3933 45.6614 17.6016 43.3703 15.6375 40.4308C13.6734 37.4913 12.625 34.0353 12.625 30.5C12.625 26.9647 13.6733 23.5087 15.6375 20.5692C17.6016 17.6297 20.3933 15.3386 23.6595 13.9857C26.9258 12.6327 30.5198 12.2788 33.9872 12.9685C37.4546 13.6582 40.6397 15.3606 43.1395 17.8605L49.9454 11.0546Z" stroke="white" stroke-width="6" mask="url(#path-1-outside-1_101_16)"/>
</svg>
