<svg width="151" height="151" viewBox="0 0 151 151" fill="none" xmlns="http://www.w3.org/2000/svg">
<path d="M14.3494 75.5C14.3494 109.273 41.7275 136.651 75.5 136.651C109.272 136.651 136.651 109.273 136.651 75.5C136.651 41.7275 109.272 14.3495 75.5 14.3495C41.7275 14.3495 14.3494 41.7275 14.3494 75.5ZM112.076 75.5C112.076 95.7005 95.7005 112.076 75.5 112.076C55.2995 112.076 38.9238 95.7005 38.9238 75.5C38.9238 55.2996 55.2995 38.9238 75.5 38.9238C95.7005 38.9238 112.076 55.2996 112.076 75.5Z" fill="#F2F2F7"/>
<rect width="38.7784" height="27.6989" rx="8.52272" transform="matrix(-1 0 0 1 94.8892 0.500053)" fill="#F2F2F7"/>
<rect width="38.7784" height="27.6989" rx="8.52272" transform="matrix(-0.707107 0.707107 0.707107 0.707107 36.1772 8.75679)" fill="#F2F2F7"/>
<rect width="38.7784" height="27.6989" rx="8.52272" transform="matrix(-0.707107 0.707107 0.707107 0.707107 122.657 95.2367)" fill="#F2F2F7"/>
<rect width="38.7784" height="27.6989" rx="8.52272" transform="matrix(-0.707107 -0.707107 -0.707107 0.707107 142.243 36.1773)" fill="#F2F2F7"/>
<rect width="38.7784" height="27.6989" rx="8.52272" transform="matrix(-0.707107 -0.707107 -0.707107 0.707107 55.7632 122.657)" fill="#F2F2F7"/>
<rect width="38.7784" height="27.6989" rx="8.52272" transform="matrix(4.37114e-08 1 1 -4.37114e-08 0.5 56.1108)" fill="#F2F2F7"/>
<rect width="38.7784" height="27.6989" rx="8.52272" transform="matrix(4.37114e-08 1 1 -4.37114e-08 122.801 56.1108)" fill="#F2F2F7"/>
<rect width="38.7784" height="27.6989" rx="8.52272" transform="matrix(-1 0 0 1 94.8892 122.801)" fill="#F2F2F7"/>
</svg>
